<svg width="897" height="741" viewBox="0 0 897 741" fill="none" xmlns="http://www.w3.org/2000/svg">
<path d="M422.87 514.859L431.151 422.407L421.897 330.089L514.327 338.153L606.664 328.681L598.383 421.133L607.637 513.451L515.207 505.387L422.87 514.859Z" fill="#00FF47"/>
<g style="mix-blend-mode:hard-light">
<path d="M404.87 277.859L413.151 185.407L403.897 93.089L496.327 101.153L588.664 91.6809L580.383 184.133L589.637 276.451L497.207 268.387L404.87 277.859Z" fill="#00FF47"/>
</g>
<path d="M96.5644 645.212L98.711 548.801L96.1943 452.442L192.578 453.717L288.953 450.328L286.806 546.738L289.323 643.098L192.939 641.823L96.5644 645.212Z" fill="#862424"/>
<path d="M896 398L694 321L768.172 398L694 472L896 398Z" fill="#BA1616"/>
<path d="M896 398L694 321L768.172 398L694 472L896 398Z" stroke="#C71CD6"/>
<path d="M811 547.325L700 505L740.758 547.325L700 588L811 547.325Z" stroke="#C71CD6" stroke-width="60"/>
<path d="M811 227.325L700 185L740.758 227.325L700 268L811 227.325Z" stroke="#C71CD6" stroke-width="60"/>
<path d="M701.791 175.961L678.369 210.762L693.523 226.81L678.665 241.931L701.526 277.14L781.526 247.246L834.354 227.505L781.791 207.067L701.791 175.961Z" stroke="#C71CD6" stroke-width="43"/>
</svg>
