<?xml version="1.0" encoding="utf-8"?>
<!-- Generator: Adobe Illustrator 21.1.0, SVG Export Plug-In . SVG Version: 6.00 Build 0)  -->
<svg version="1.1" id="Слой_1" xmlns="http://www.w3.org/2000/svg" xmlns:xlink="http://www.w3.org/1999/xlink" x="0px" y="0px"
	 viewBox="0 0 283.5 283.5" style="enable-background:new 0 0 283.5 283.5;" xml:space="preserve">
<style type="text/css">
	.st0{fill:#FFFFFF;}
	.st1{fill:#FA0F0C;}
</style>
<g>
	<path class="st0" d="M259.4,269.3H24.1c-5.5,0-9.9-4.4-9.9-9.9V24.1c0-5.5,4.4-9.9,9.9-9.9h235.3c5.5,0,9.9,4.4,9.9,9.9v235.3
		C269.3,264.9,264.9,269.3,259.4,269.3z"/>
	<g>
		<path d="M259.4,264.3c-27.4,0-54.8,0-82.2,0c-42.5,0-85,0-127.4,0c-8.3,0-17.4,1-25.7,0c-5.3-0.6-4.9-4.9-4.9-8.8
			c0-5.1,0-10.2,0-15.3c0-41.2,0-82.5,0-123.7c0-20.3,0-40.6,0-60.8c0-10.2-0.7-20.7,0-30.8c0.3-4.2,3-5.5,6.7-5.6
			c4.2-0.1,8.4,0,12.5,0c17.2,0,34.3,0,51.5,0c43.9,0,87.9,0,131.8,0c11.9,0,23.8,0,35.6,0c3.7,0,6.6,1,7,5.4c0.3,3.2,0,6.6,0,9.8
			c0,38.6,0,77.2,0,115.9c0,35,0,70,0,105C264.3,259,264.8,263.9,259.4,264.3c-6.4,0.4-6.4,10.4,0,10c9.5-0.6,14.8-7.7,14.9-16.8
			c0-4.5,0-9,0-13.5c0-18,0-36.1,0-54.1c0-44.8,0-89.6,0-134.4c0-10.3,0.4-20.7,0-31c-0.3-8.9-6.6-15.1-15.4-15.4
			c-3.5-0.1-7,0-10.4,0c-40.2,0-80.4,0-120.7,0c-34,0-68-0.3-102,0C16.8,9.3,9.6,14.7,9.2,24.1c-0.1,2.4,0,4.8,0,7.2
			c0,15.4,0,30.8,0,46.2c0,45.6,0,91.1,0,136.7c0,13.8,0,27.6,0,41.4c0,5.7,0.5,11.1,5.3,15.2c4.1,3.5,8.8,3.5,13.8,3.5
			c36.6,0,73.3,0,109.9,0c38.2,0,76.4,0,114.7,0c2.2,0,4.3,0,6.5,0C265.8,274.3,265.8,264.3,259.4,264.3z"/>
	</g>
</g>
<g>
	<path class="st1" d="M141.7,240.9L141.7,240.9c-54.8,0-99.2-44.4-99.2-99.2v0c0-54.8,44.4-99.2,99.2-99.2h0
		c54.8,0,99.2,44.4,99.2,99.2v0C240.9,196.5,196.5,240.9,141.7,240.9z"/>
	<g>
		<path class="st1" d="M141.7,237.2c-39.7,0-76.5-25.6-89.8-63.1c-13.4-37.5-1.8-80,28.6-105.6c30.4-25.7,75.2-29.3,109.5-9.2
			c34.5,20.2,53.3,61.2,45.6,100.6C226.7,204.5,187,236.9,141.7,237.2c-4.8,0-4.8,7.5,0,7.5c43.3-0.3,82.5-27.7,97.1-68.6
			c14.5-40.6,1.1-87.6-32.5-114.6c-33.7-27-82-30.2-118.8-7.4c-36.2,22.5-55,65.9-46.8,107.7c9.3,47.6,52.6,82.8,101,82.8
			C146.6,244.7,146.6,237.2,141.7,237.2z"/>
	</g>
</g>
</svg>
