<?xml version="1.0" encoding="utf-8"?>
<!-- Generator: Adobe Illustrator 21.1.0, SVG Export Plug-In . SVG Version: 6.00 Build 0)  -->
<svg version="1.1" id="Слой_1" xmlns="http://www.w3.org/2000/svg" xmlns:xlink="http://www.w3.org/1999/xlink" x="0px" y="0px"
	 viewBox="0 0 283.5 283.5" style="enable-background:new 0 0 283.5 283.5;" xml:space="preserve">
<style type="text/css">
	.st0{fill:#FFFFFF;}
</style>
<g>
	<path class="st0" d="M259.4,269.3H24.1c-5.5,0-9.9-4.4-9.9-9.9V24.1c0-5.5,4.4-9.9,9.9-9.9h235.3c5.5,0,9.9,4.4,9.9,9.9v235.3
		C269.3,264.9,264.9,269.3,259.4,269.3z"/>
	<g>
		<path d="M259.4,264.3c-27.4,0-54.8,0-82.2,0c-42.5,0-85,0-127.4,0c-8.3,0-17.4,1-25.7,0c-5.3-0.6-4.9-4.9-4.9-8.8
			c0-5.1,0-10.2,0-15.3c0-41.2,0-82.5,0-123.7c0-20.3,0-40.6,0-60.8c0-10.2-0.7-20.7,0-30.8c0.3-4.2,3-5.5,6.7-5.6
			c4.2-0.1,8.4,0,12.5,0c17.2,0,34.3,0,51.5,0c43.9,0,87.9,0,131.8,0c11.9,0,23.8,0,35.6,0c3.7,0,6.6,1,7,5.4c0.3,3.2,0,6.6,0,9.8
			c0,38.6,0,77.2,0,115.9c0,35,0,70,0,105C264.3,259,264.8,263.9,259.4,264.3c-6.4,0.4-6.4,10.4,0,10c9.5-0.6,14.8-7.7,14.9-16.8
			c0-4.5,0-9,0-13.5c0-18,0-36.1,0-54.1c0-44.8,0-89.6,0-134.4c0-10.3,0.4-20.7,0-31c-0.3-8.9-6.6-15.1-15.4-15.4
			c-3.5-0.1-7,0-10.4,0c-40.2,0-80.4,0-120.7,0c-34,0-68-0.3-102,0C16.8,9.3,9.6,14.7,9.2,24.1c-0.1,2.4,0,4.8,0,7.2
			c0,15.4,0,30.8,0,46.2c0,45.6,0,91.1,0,136.7c0,13.8,0,27.6,0,41.4c0,5.7,0.5,11.1,5.3,15.2c4.1,3.5,8.8,3.5,13.8,3.5
			c36.6,0,73.3,0,109.9,0c38.2,0,76.4,0,114.7,0c2.2,0,4.3,0,6.5,0C265.8,274.3,265.8,264.3,259.4,264.3z"/>
	</g>
</g>
<g>
	<path d="M233.8,240.9H49.7c-3.9,0-7.1-3.2-7.1-7.1V49.7c0-3.9,3.2-7.1,7.1-7.1h184.2c3.9,0,7.1,3.2,7.1,7.1v184.2
		C240.9,237.8,237.8,240.9,233.8,240.9z"/>
	<g>
		<path d="M233.8,237.2c-21.2,0-42.4,0-63.6,0c-33.1,0-66.3,0-99.4,0c-4.9,0-9.8,0-14.8,0c-2,0-4.4,0.4-6.3,0
			c-3.8-0.7-3.5-3.4-3.5-6.3c0-3.9,0-7.9,0-11.8c0-32.1,0-64.2,0-96.2c0-15.9,0-31.7,0-47.6c0-8.2-0.7-16.7,0-24.9
			c0.2-2.9,2.1-4,4.7-4.2c3.2-0.2,6.6,0,9.8,0c13.3,0,26.6,0,39.9,0c34.2,0,68.4,0,102.7,0c9.5,0,19-0.2,28.5,0
			c2.7,0.1,5,0.3,5.4,3.8c0.3,2.4,0,5,0,7.5c0,29.9,0,59.8,0,89.7c0,27.6,0,55.1,0,82.7C237.2,232.7,237.9,236.8,233.8,237.2
			c-4.8,0.4-4.8,7.9,0,7.5c12.6-1.1,10.9-13.2,10.9-22.3c0-14.1,0-28.2,0-42.3c0-35.2,0-70.3,0-105.5c0-8.2,0.3-16.4,0-24.6
			c-0.5-11.5-10.6-11.2-19-11.2c-31.5,0-63,0-94.5,0c-26.7,0-53.5-0.4-80.3,0c-6.3,0.1-11.6,3.5-12.2,10.2c-0.2,2-0.1,3.9-0.1,5.9
			c0,12,0,24.1,0,36.1c0,35.7,0,71.5,0,107.2c0,10.9,0,21.7,0,32.6c0,3.9,0.2,7.6,3.2,10.7c3,3,6.8,3.2,10.7,3.2
			c28.5,0,57.1,0,85.6,0c30.1,0,60.2,0,90.3,0c1.8,0,3.5,0,5.3,0C238.6,244.7,238.6,237.2,233.8,237.2z"/>
	</g>
</g>
</svg>
